<svg width="58" height="66.667" fill="none" xmlns="http://www.w3.org/2000/svg"><path fill-rule="evenodd" clip-rule="evenodd" d="M37.434 56.755C49.337 53.142 58 42.082 58 29 58 12.984 45.016 0 29 0S0 12.984 0 29c0 13.083 8.663 24.142 20.566 27.755l6.834 9.112a2 2 0 0 0 3.2 0z" fill="#fff"/><g clip-path="url(#a)" transform="translate(-4 -4)"><path fill-rule="evenodd" clip-rule="evenodd" d="M32.738 58.626c14.36 0 26-11.64 26-26s-11.64-26-26-26-26 11.64-26 26 11.64 26 26 26z" fill="#ffc400"/><mask id="b" maskUnits="userSpaceOnUse" x="9" y="9" width="47" height="47"><path fill-rule="evenodd" clip-rule="evenodd" d="M32.738 55.626c12.703 0 23-10.297 23-23s-10.297-23-23-23c-12.702 0-23 10.297-23 23s10.298 23 23 23z" fill="#fff"/></mask><g mask="url(#b)" fill-rule="evenodd" clip-rule="evenodd"><path d="M25.963 17.315a3.768 3.768 0 0 0-1.763 2.779l-.383 3.39a3.765 3.765 0 0 0 1.1 3.102L27.36 29a3.826 3.826 0 0 0 3.106 1.078L33.9 29.7a3.802 3.802 0 0 0 2.794-1.735l1.834-2.887c.62-.977.757-2.181.37-3.271l-1.145-3.221a3.798 3.798 0 0 0-2.338-2.314l-3.261-1.13a3.828 3.828 0 0 0-3.268.36z" fill="#65dbff" stroke="#18427c" stroke-width="2" stroke-linejoin="round"/><path d="m34.881 20.179-1.703 1.953a1.53 1.53 0 0 1-2.123.161 1.466 1.466 0 0 1-.53-1.055l-.124-2.595a.802.802 0 0 1 .778-.832c.104-.004.209.011.308.045l3.04 1.051c.427.148.651.604.502 1.02a.79.79 0 0 1-.148.252z" fill="#fff"/><path d="M36.194 34.569a3.499 3.499 0 0 0-1.637 2.58l-.355 3.148a3.496 3.496 0 0 0 1.02 2.88l2.27 2.243a3.554 3.554 0 0 0 2.885 1.001l3.187-.351a3.53 3.53 0 0 0 2.594-1.612l1.704-2.68a3.483 3.483 0 0 0 .343-3.038l-1.063-2.991a3.527 3.527 0 0 0-2.17-2.149l-3.03-1.05a3.555 3.555 0 0 0-3.034.336Z" fill="#65dbff" stroke="#18427c" stroke-width="2" stroke-linejoin="round"/><path d="m44.644 37.827-1.557 1.786c-.492.565-1.361.63-1.94.148a1.34 1.34 0 0 1-.485-.965l-.114-2.373a.733.733 0 0 1 .71-.76.765.765 0 0 1 .282.04l2.78.962c.39.135.596.552.46.931a.721.721 0 0 1-.136.231z" fill="#fff"/><path d="M20.462 35.859a2.691 2.691 0 0 0-1.26 1.985l-.273 2.421a2.69 2.69 0 0 0 .785 2.216l1.747 1.725c.583.576 1.4.86 2.219.77l2.45-.27a2.716 2.716 0 0 0 1.996-1.24l1.31-2.062a2.68 2.68 0 0 0 .265-2.336l-.818-2.301a2.713 2.713 0 0 0-1.67-1.653l-2.33-.807a2.735 2.735 0 0 0-2.334.258z" fill="#65dbff" stroke="#18427c" stroke-width="2" stroke-linejoin="round"/></g></g><defs><clipPath id="a"><path fill="#fff" transform="translate(6.738 6.75)" d="M0 0h56.522v56.522H0z"/></clipPath></defs></svg>