<svg width="58" height="67" viewBox="0 0 58 67" fill="none" xmlns="http://www.w3.org/2000/svg">
<path fill-rule="evenodd" clip-rule="evenodd" d="M36.2007 57.3922C48.7336 54.1736 58 42.7489 58 29.1489C58 13.0504 45.0163 0 29 0C12.9837 0 0 13.0504 0 29.1489C0 42.7489 9.26637 54.1736 21.7993 57.3922L28.5553 66.4465C28.7777 66.7445 29.2223 66.7445 29.4447 66.4465L36.2007 57.3922Z" fill="white"/>
<circle cx="29" cy="29" r="26" fill="#1AB3FF"/>
<path d="M19 17.1111C19 15.9452 19.9949 15 21.2222 15H36.7778C38.0051 15 39 15.9452 39 17.1111V31.8889C39 33.0548 38.0051 34 36.7778 34H21.2222C19.9949 34 19 33.0548 19 31.8889V17.1111Z" fill="#FFC400"/>
<path d="M34 25C34 27.7614 31.7614 30 29 30C26.2386 30 24 27.7614 24 25C24 22.2386 26.2386 20 29 20C31.7614 20 34 22.2386 34 25Z" fill="#18427C"/>
<path d="M22.4997 32C23.3286 32 24 31.3285 24 30.5C24 29.6715 23.3286 29 22.4997 29C21.6714 29 21 29.6715 21 30.5C21 31.3285 21.6714 32 22.4997 32Z" fill="#18427C"/>
<path fill-rule="evenodd" clip-rule="evenodd" d="M36 13H22C19.7909 13 18 14.7909 18 17V31C18 33.2091 19.7909 35 22 35H23C23 36.1046 23.8954 37 25 37H25.8774L20.4389 42.4393C19.8532 43.0252 19.8532 43.9749 20.4391 44.5606C21.0249 45.1464 21.9746 45.1463 22.5604 44.5605L27.5007 39.6194L27.5 43.5C27.4998 44.3284 28.1712 45.0001 28.9997 45.0003C29.8281 45.0004 30.4998 44.329 30.5 43.5006L30.5007 39.6213L35.4396 44.5608C36.0254 45.1466 36.9751 45.1466 37.561 44.5609C38.1468 43.9751 38.1468 43.0254 37.5611 42.4396L32.1221 37H33C34.1046 37 35 36.1046 35 35H36C38.2091 35 40 33.2091 40 31V17C40 14.7909 38.2091 13 36 13ZM36 33H22C20.8954 33 20 32.1046 20 31V19C20 17.8954 20.8954 17 22 17H36C37.1046 17 38 17.8954 38 19V31C38 32.1046 37.1046 33 36 33Z" fill="#18427C"/>
<path fill-rule="evenodd" clip-rule="evenodd" d="M29 24C28.4477 24 28 24.4478 28 25C28 25.5523 27.5523 26 27 26C26.4477 26 26 25.5523 26 25C26 23.3433 27.3431 22 29 22C29.5523 22 30 22.4477 30 23C30 23.5523 29.5523 24 29 24Z" fill="white"/>
</svg>
