<svg width="58" height="66.667" fill="none" xmlns="http://www.w3.org/2000/svg"><path fill-rule="evenodd" clip-rule="evenodd" d="M37.434 56.755C49.337 53.142 58 42.082 58 29 58 12.984 45.016 0 29 0S0 12.984 0 29c0 13.083 8.663 24.142 20.566 27.755l6.834 9.112a2 2 0 0 0 3.2 0z" fill="#fff"/><path fill-rule="evenodd" clip-rule="evenodd" d="M29 55c14.36 0 26-11.64 26-26S43.36 3 29 3 3 14.64 3 29s11.64 26 26 26z" fill="#ffc400"/><mask id="a" mask-type="alpha" maskUnits="userSpaceOnUse" x="7" y="7" width="52" height="52"><path fill-rule="evenodd" clip-rule="evenodd" d="M33 59c14.36 0 26-11.64 26-26S47.36 7 33 7 7 18.64 7 33s11.64 26 26 26z" fill="#fff"/></mask><path fill-rule="evenodd" clip-rule="evenodd" d="M28.903 33.877a2.261 2.261 0 0 1 0 3.197l-6.88 6.622a2.261 2.261 0 0 1-3.197-3.198l6.88-6.621a2.261 2.261 0 0 1 3.197 0z" fill="#ff5252" stroke="#75011d" stroke-width="2.261"/><path d="M39.989 15.568a6.924 6.924 0 0 0-1.238-.133 8.361 8.361 0 0 0-6.084 2.614 13.68 13.68 0 0 0-5.362-1.087 13.68 13.68 0 0 0-5.361 1.087 8.365 8.365 0 0 0-6.085-2.614c-.347 0-.76.044-1.238.133a3.054 3.054 0 0 0-2.444 2.447l-.04.234c-.062.38-.093.716-.093 1.005a8.378 8.378 0 0 0 2.612 6.09 13.717 13.717 0 0 0-1.086 5.367c0 1.69.305 3.308.862 4.803a1.503 1.503 0 0 0 2.258.717c.06-.041.115-.079.168-.113 3.213-2.11 6.705-1.51 10.447-1.509 3.77 0 6.783-.265 9.778 1.209 1.27.625 2.92.33 3.34-1.021.4-1.291.617-2.663.617-4.086 0-1.904-.387-3.718-1.086-5.367a8.382 8.382 0 0 0 2.612-6.09c0-.29-.031-.624-.093-1.005l-.04-.234-.033-.154a3.054 3.054 0 0 0-2.411-2.293z" fill="#90959c" stroke="#3c4043" stroke-width="2.261" stroke-linejoin="round"/><mask id="b" maskUnits="userSpaceOnUse" x="19.826" y="26.609" width="23" height="21" fill="#000"><path fill="#fff" d="M19.826 26.609h23v21h-23z"/><path fill-rule="evenodd" clip-rule="evenodd" d="M37.216 29.835c.245.087.48.2.7.335 1.978 1.212 2.466 3.628 1.07 5.522l-4.178 7.301c-1.266 1.87-3.861 2.395-5.798 1.173a4.12 4.12 0 0 1-1.214-1.173l-4.177-7.3c-1.385-1.946-.91-4.311 1.069-5.523a3.827 3.827 0 0 1 4.494.367l.187.173c1.08 1 2.785 1 3.866 0l.201-.187a3.827 3.827 0 0 1 3.78-.688z"/></mask><path fill-rule="evenodd" clip-rule="evenodd" d="M33.216 25.835c.245.087.48.2.7.335 1.978 1.212 2.466 3.628 1.07 5.522l-4.178 7.301c-1.266 1.87-3.861 2.395-5.798 1.173a4.12 4.12 0 0 1-1.214-1.173l-4.177-7.3c-1.385-1.946-.91-4.311 1.069-5.523a3.827 3.827 0 0 1 4.494.367l.187.173c1.08 1 2.785 1 3.866 0l.202-.187a3.827 3.827 0 0 1 3.779-.688z" fill="#f2f4f7"/><path clip-rule="evenodd" d="M37.216 29.835c.245.087.48.2.7.335 1.978 1.212 2.466 3.628 1.07 5.522l-4.178 7.301c-1.266 1.87-3.861 2.395-5.798 1.173a4.12 4.12 0 0 1-1.214-1.173l-4.177-7.3c-1.385-1.946-.91-4.311 1.069-5.523a3.827 3.827 0 0 1 4.494.367l.187.173c1.08 1 2.785 1 3.866 0l.201-.187a3.827 3.827 0 0 1 3.78-.688z" stroke="#3c4043" stroke-width="4.162" mask="url(#b)" transform="translate(-4 -4)"/><path d="M27.305 37.705a2.26 2.26 0 1 0 0-4.521 2.26 2.26 0 0 0 0 4.521zM23.11 31.491a.78.78 0 1 0 1.104-1.104zm-.977-3.185a.78.78 0 1 0-1.104 1.104zm2.081 2.081-2.081-2.08-1.104 1.103 2.081 2.081z" fill="#3c4043"/><path d="M22.133 31.491a.78.78 0 1 1-1.104-1.104zm.977-3.185a.78.78 0 1 1 1.104 1.104zm-2.08 2.081 2.08-2.08 1.104 1.103-2.081 2.081zM32.476 31.491a.78.78 0 1 0 1.103-1.104zm-.978-3.185a.78.78 0 1 0-1.104 1.104zm2.081 2.081-2.08-2.08-1.105 1.103 2.082 2.081z" fill="#3c4043"/><path d="M31.498 31.491a.78.78 0 1 1-1.104-1.104zm.978-3.185a.78.78 0 1 1 1.103 1.104zm-2.082 2.081 2.082-2.08 1.103 1.103-2.081 2.081z" fill="#3c4043"/><path d="M24.479 17.696v3.391M30.13 17.696v3.391" stroke="#3c4043" stroke-width="2.261" stroke-linecap="round" stroke-linejoin="round"/><path d="M39.255 26.594a1.13 1.13 0 1 0 2.099-.84zm-.533-5.733a1.13 1.13 0 0 0-1.357-1.809zm-.745-.85.738.855zm3.377 5.743c-.476-1.19-1.081-2.073-1.685-2.736l-1.671 1.523c.43.472.886 1.127 1.257 2.053zm-2.639-4.888a.108.108 0 0 1 .007-.005l-1.357-1.809a2.411 2.411 0 0 0-.127.102zm.954 2.152c-.485-.532-.868-1.085-1.024-1.539-.074-.216-.074-.347-.062-.415.008-.044.026-.107.132-.198l-1.477-1.712c-.48.414-.777.933-.88 1.51-.1.556-.008 1.09.148 1.547.305.892.935 1.719 1.492 2.33zM15.354 26.594a1.13 1.13 0 1 1-2.1-.84zm.533-5.733a1.13 1.13 0 0 1 1.356-1.809zm.745-.85-.739.855zm-3.377 5.743c.475-1.19 1.08-2.073 1.684-2.736l1.672 1.523c-.43.472-.887 1.127-1.257 2.053zm2.638-4.888a.152.152 0 0 0-.006-.005l1.356-1.809c.044.033.087.068.127.102zm-.954 2.152c.485-.532.869-1.085 1.024-1.539.074-.216.075-.347.063-.415-.008-.044-.027-.107-.133-.198l1.477-1.712c.48.414.777.933.88 1.51.1.556.009 1.09-.148 1.547-.305.892-.935 1.719-1.491 2.33z" fill="#3c4043"/><mask id="c" maskUnits="userSpaceOnUse" x="33.392" y="31.6" width="18" height="16" fill="#000"><path fill="#fff" d="M33.392 31.6h18v16h-18z"/><path fill-rule="evenodd" clip-rule="evenodd" d="M43.339 34.772a1.63 1.63 0 0 0-1.127-.124 1.466 1.466 0 0 0-.895.628l-4.733 7.512c-.126.2-.192.425-.192.655 0 .367.166.7.434.94.269.242.64.39 1.05.39h9.467c.255 0 .507-.059.73-.172.356-.18.597-.474.699-.802a1.207 1.207 0 0 0-.138-1.01L43.9 35.275a1.418 1.418 0 0 0-.561-.504z"/></mask><path fill-rule="evenodd" clip-rule="evenodd" d="M39.339 30.772a1.63 1.63 0 0 0-1.127-.123 1.466 1.466 0 0 0-.895.627l-4.733 7.512c-.126.2-.192.425-.192.655 0 .367.166.7.434.94.269.242.64.39 1.05.39h9.467c.255 0 .507-.059.73-.172.356-.18.597-.474.699-.802a1.207 1.207 0 0 0-.138-1.01L39.9 31.275a1.418 1.418 0 0 0-.561-.504z" fill="#fdd632"/><path clip-rule="evenodd" d="M43.339 34.772a1.63 1.63 0 0 0-1.127-.124 1.466 1.466 0 0 0-.895.628l-4.733 7.512c-.126.2-.192.425-.192.655 0 .367.166.7.434.94.269.242.64.39 1.05.39h9.467c.255 0 .507-.059.73-.172.356-.18.597-.474.699-.802a1.207 1.207 0 0 0-.138-1.01L43.9 35.275a1.418 1.418 0 0 0-.561-.504z" stroke="#a84600" stroke-width="4.522" mask="url(#c)" transform="translate(-4 -4)"/><path fill-rule="evenodd" clip-rule="evenodd" d="M37.656 33.99c-.079-.565.331-1.022.925-1.022.59 0 1.003.46.924 1.021l-.324 2.314a.573.573 0 0 1-.563.475h-.075a.58.58 0 0 1-.563-.475z" fill="#8a3700"/><path d="M38.611 39.635c.543 0 .983-.426.983-.952s-.44-.953-.983-.953c-.543 0-.983.427-.983.953s.44.952.983.952z" fill="#8a3700"/></svg>