<svg width="58" height="66.667" fill="none" xmlns="http://www.w3.org/2000/svg"><path fill-rule="evenodd" clip-rule="evenodd" d="M37.434 56.755C49.337 53.142 58 42.082 58 29 58 12.984 45.016 0 29 0S0 12.984 0 29c0 13.083 8.663 24.142 20.566 27.755l6.834 9.112a2 2 0 0 0 3.2 0z" fill="#fff"/><path fill-rule="evenodd" clip-rule="evenodd" d="M29 55c14.36 0 26-11.64 26-26S43.36 3 29 3 3 14.64 3 29s11.64 26 26 26z" fill="#ffc400"/><mask id="a" mask-type="alpha" maskUnits="userSpaceOnUse" x="7" y="7" width="52" height="52"><path fill-rule="evenodd" clip-rule="evenodd" d="M33 59c14.36 0 26-11.64 26-26S47.36 7 33 7 7 18.64 7 33s11.64 26 26 26z" fill="#fff"/></mask><g mask="url(#a)" transform="translate(-4 -4)"><path d="M33.839 32.346c-.193.534-.658.962-1.225.962h-.744c-2.185 0-3.957 1.933-3.957 4.316 0 .21.014.416.04.617h-3.431c-1.249 0-2.26 1.104-2.26 2.466 0 1.363 1.011 2.467 2.26 2.467h22.609c1.248 0 2.26-1.104 2.26-2.467 0-1.362-1.012-2.466-2.26-2.466h-1.683c-.328 0-.578-.289-.578-.617 0-1.862-1.08-3.448-2.596-4.054-.473-.189-.86-.58-1.015-1.065-.538-1.686-2.008-2.896-3.737-2.896-1.674 0-3.106 1.134-3.683 2.737z" fill="#d5d7db" stroke="#55595e" stroke-width="2.261"/><path d="M37.451 37.3h3.324v4.57a1.662 1.662 0 1 1-3.324 0zM21.662 37.3h3.324v4.57a1.662 1.662 0 1 1-3.324 0z" fill="#75011d"/><path d="M34.99 20.051a23.38 23.38 0 0 0-7.544 0 5.845 5.845 0 0 0-4.747 4.43l-1.032 4.386c-.11.467-.363.883-.653 1.266A4.963 4.963 0 0 0 20 33.145v1.246a4.986 4.986 0 0 0 4.985 4.986H37.45a4.986 4.986 0 0 0 4.986-4.986v-1.246a4.97 4.97 0 0 0-1.498-3.563l-1.2-5.1a5.845 5.845 0 0 0-4.747-4.43z" fill="#fd804b" stroke="#75011d" stroke-width="2.261"/><rect x="23.325" y="31.899" width="4.155" height="4.155" rx="2.077" fill="#fff"/><rect x="34.957" y="31.899" width="4.155" height="4.155" rx="2.077" fill="#fff"/><path d="m24.996 25.409-.256.936a1.687 1.687 0 0 0 1.627 2.133h9.702a1.687 1.687 0 0 0 1.628-2.133l-.257-.936a2.897 2.897 0 0 0-2.384-2.103 27.154 27.154 0 0 0-7.675 0 2.897 2.897 0 0 0-2.385 2.103z" fill="#75011d"/><path d="M31.007 33.187c.215.52.676.943 1.238.943h.756a3.957 3.957 0 0 1 3.916 4.522h2.301a2.26 2.26 0 0 1 0 4.522H18.87a2.26 2.26 0 0 1 0-4.522h.604c.299 0 .527-.266.527-.565a3.958 3.958 0 0 1 2.59-3.714 1.78 1.78 0 0 0 1.043-1.044 3.958 3.958 0 0 1 7.373-.142z" fill="#fff" stroke="#72767d" stroke-width="2.261"/><path d="M38.088 38.652h-4.522M21.73 34.936c.932-.4 1.944-.35 2.793.053" stroke="#72767d" stroke-width="2.261" stroke-linecap="round"/></g></svg>